<svg xmlns="http://www.w3.org/2000/svg" style="display:none">

  <!-- ── UI icons (24 × 24) ───────────────────────────────────────────── -->

  <symbol id="icon-chevron-left" viewBox="0 0 24 24" fill="none" stroke="currentColor" stroke-width="2" stroke-linecap="round" stroke-linejoin="round">
    <polyline points="15 18 9 12 15 6"/>
  </symbol>

  <symbol id="icon-chevron-right" viewBox="0 0 24 24" fill="none" stroke="currentColor" stroke-width="2" stroke-linecap="round" stroke-linejoin="round">
    <polyline points="9 18 15 12 9 6"/>
  </symbol>

  <symbol id="icon-arrow-down" viewBox="0 0 24 24" fill="none" stroke="currentColor" stroke-width="2" stroke-linecap="round" stroke-linejoin="round">
    <line x1="12" y1="5" x2="12" y2="19"/>
    <polyline points="19 12 12 19 5 12"/>
  </symbol>

  <symbol id="icon-plus" viewBox="0 0 24 24" fill="none" stroke="currentColor" stroke-width="2" stroke-linecap="round" stroke-linejoin="round">
    <line x1="12" y1="5" x2="12" y2="19"/>
    <line x1="5" y1="12" x2="19" y2="12"/>
  </symbol>

  <symbol id="icon-x" viewBox="0 0 24 24" fill="none" stroke="currentColor" stroke-width="2" stroke-linecap="round" stroke-linejoin="round">
    <line x1="18" y1="6" x2="6" y2="18"/>
    <line x1="6" y1="6" x2="18" y2="18"/>
  </symbol>

  <symbol id="icon-check" viewBox="0 0 24 24" fill="none" stroke="currentColor" stroke-width="2" stroke-linecap="round" stroke-linejoin="round">
    <polyline points="20 6 9 17 4 12"/>
  </symbol>

  <symbol id="icon-search" viewBox="0 0 24 24" fill="none" stroke="currentColor" stroke-width="2" stroke-linecap="round" stroke-linejoin="round">
    <circle cx="11" cy="11" r="8"/>
    <line x1="21" y1="21" x2="16.65" y2="16.65"/>
  </symbol>

  <symbol id="icon-info" viewBox="0 0 24 24" fill="none" stroke="currentColor" stroke-width="2" stroke-linecap="round" stroke-linejoin="round">
    <circle cx="12" cy="12" r="10"/>
    <line x1="12" y1="8" x2="12" y2="12"/>
    <line x1="12" y1="16" x2="12.01" y2="16"/>
  </symbol>

  <symbol id="icon-info-i" viewBox="0 0 24 24" fill="none" stroke="currentColor" stroke-width="2" stroke-linecap="round" stroke-linejoin="round">
    <circle cx="12" cy="12" r="10"/>
    <line x1="12" y1="16" x2="12" y2="12"/>
    <line x1="12" y1="8" x2="12.01" y2="8"/>
  </symbol>

  <symbol id="icon-warning" viewBox="0 0 24 24" fill="none" stroke="currentColor" stroke-width="2" stroke-linecap="round" stroke-linejoin="round">
    <path d="M10.29 3.86L1.82 18a2 2 0 0 0 1.71 3h16.94a2 2 0 0 0 1.71-3L13.71 3.86a2 2 0 0 0-3.42 0z"/>
    <line x1="12" y1="9" x2="12" y2="13"/>
    <line x1="12" y1="17" x2="12.01" y2="17"/>
  </symbol>

  <symbol id="icon-trash" viewBox="0 0 24 24" fill="none" stroke="currentColor" stroke-width="2" stroke-linecap="round" stroke-linejoin="round">
    <polyline points="3 6 5 6 21 6"/>
    <path d="M19 6v14a2 2 0 0 1-2 2H7a2 2 0 0 1-2-2V6m3 0V4a2 2 0 0 1 2-2h4a2 2 0 0 1 2 2v2"/>
    <line x1="10" y1="11" x2="10" y2="17"/>
    <line x1="14" y1="11" x2="14" y2="17"/>
  </symbol>

  <symbol id="icon-eye" viewBox="0 0 24 24" fill="none" stroke="currentColor" stroke-width="2" stroke-linecap="round" stroke-linejoin="round">
    <path d="M1 12s4-8 11-8 11 8 11 8-4 8-11 8-11-8-11-8z"/>
    <circle cx="12" cy="12" r="3"/>
  </symbol>

  <symbol id="icon-eye-off" viewBox="0 0 24 24" fill="none" stroke="currentColor" stroke-width="2" stroke-linecap="round" stroke-linejoin="round">
    <path d="M17.94 17.94A10.94 10.94 0 0 1 12 20c-7 0-11-8-11-8a21.8 21.8 0 0 1 5.06-6.06M9.9 4.24A10.94 10.94 0 0 1 12 4c7 0 11 8 11 8a21.8 21.8 0 0 1-3.22 4.44M14.12 14.12a3 3 0 1 1-4.24-4.24"/>
    <line x1="1" y1="1" x2="23" y2="23"/>
  </symbol>

  <symbol id="icon-edit" viewBox="0 0 24 24" fill="none" stroke="currentColor" stroke-width="2" stroke-linecap="round" stroke-linejoin="round">
    <path d="M11 4H4a2 2 0 0 0-2 2v14a2 2 0 0 0 2 2h14a2 2 0 0 0 2-2v-7"/>
    <path d="M18.5 2.5a2.121 2.121 0 0 1 3 3L12 15l-4 1 1-4 9.5-9.5z"/>
  </symbol>

  <symbol id="icon-lock" viewBox="0 0 24 24" fill="none" stroke="currentColor" stroke-width="2" stroke-linecap="round" stroke-linejoin="round">
    <rect x="3" y="11" width="18" height="11" rx="2" ry="2"/>
    <path d="M7 11V7a5 5 0 0 1 10 0v4"/>
  </symbol>

  <symbol id="icon-settings" viewBox="0 0 24 24" fill="none" stroke="currentColor" stroke-width="2" stroke-linecap="round" stroke-linejoin="round">
    <circle cx="12" cy="12" r="3"/>
    <path d="M19.4 15a1.65 1.65 0 0 0 .33 1.82l.06.06a2 2 0 1 1-2.83 2.83l-.06-.06a1.65 1.65 0 0 0-1.82-.33 1.65 1.65 0 0 0-1 1.51V21a2 2 0 0 1-4 0v-.09A1.65 1.65 0 0 0 9 19.4a1.65 1.65 0 0 0-1.82.33l-.06.06a2 2 0 1 1-2.83-2.83l.06-.06a1.65 1.65 0 0 0 .33-1.82 1.65 1.65 0 0 0-1.51-1H3a2 2 0 0 1 0-4h.09A1.65 1.65 0 0 0 4.6 9a1.65 1.65 0 0 0-.33-1.82l-.06-.06a2 2 0 1 1 2.83-2.83l.06.06a1.65 1.65 0 0 0 1.82.33H9a1.65 1.65 0 0 0 1-1.51V3a2 2 0 0 1 4 0v.09a1.65 1.65 0 0 0 1 1.51 1.65 1.65 0 0 0 1.82-.33l.06-.06a2 2 0 1 1 2.83 2.83l-.06.06a1.65 1.65 0 0 0-.33 1.82V9a1.65 1.65 0 0 0 1.51 1H21a2 2 0 0 1 0 4h-.09a1.65 1.65 0 0 0-1.51 1z"/>
  </symbol>

  <symbol id="icon-user" viewBox="0 0 24 24" fill="none" stroke="currentColor" stroke-width="2" stroke-linecap="round" stroke-linejoin="round">
    <path d="M20 21v-2a4 4 0 0 0-4-4H8a4 4 0 0 0-4 4v2"/>
    <circle cx="12" cy="7" r="4"/>
  </symbol>

  <symbol id="icon-star" viewBox="0 0 24 24" fill="none" stroke="currentColor" stroke-width="2" stroke-linecap="round" stroke-linejoin="round">
    <polygon points="12 2 15.09 8.26 22 9.27 17 14.14 18.18 21.02 12 17.77 5.82 21.02 7 14.14 2 9.27 8.91 8.26 12 2"/>
  </symbol>

  <symbol id="icon-star-filled" viewBox="0 0 24 24" fill="currentColor" stroke="currentColor" stroke-width="2" stroke-linecap="round" stroke-linejoin="round">
    <polygon points="12 2 15.09 8.26 22 9.27 17 14.14 18.18 21.02 12 17.77 5.82 21.02 7 14.14 2 9.27 8.91 8.26 12 2"/>
  </symbol>

  <symbol id="icon-bars-chart" viewBox="0 0 24 24" fill="none" stroke="currentColor" stroke-width="2" stroke-linecap="round" stroke-linejoin="round">
    <line x1="18" y1="20" x2="18" y2="10"/>
    <line x1="12" y1="20" x2="12" y2="4"/>
    <line x1="6" y1="20" x2="6" y2="14"/>
  </symbol>

  <symbol id="icon-trending-up" viewBox="0 0 24 24" fill="none" stroke="currentColor" stroke-width="2" stroke-linecap="round" stroke-linejoin="round">
    <polyline points="23 6 13.5 15.5 8.5 10.5 1 18"/>
    <polyline points="17 6 23 6 23 12"/>
  </symbol>

  <symbol id="icon-calendar" viewBox="0 0 24 24" fill="none" stroke="currentColor" stroke-width="2" stroke-linecap="round" stroke-linejoin="round">
    <rect x="3" y="4" width="18" height="18" rx="2" ry="2"/>
    <line x1="16" y1="2" x2="16" y2="6"/>
    <line x1="8" y1="2" x2="8" y2="6"/>
    <line x1="3" y1="10" x2="21" y2="10"/>
  </symbol>

  <symbol id="icon-sun" viewBox="0 0 24 24" fill="none" stroke="currentColor" stroke-width="2" stroke-linecap="round" stroke-linejoin="round">
    <circle cx="12" cy="12" r="5"/>
    <line x1="12" y1="1" x2="12" y2="3"/>
    <line x1="12" y1="21" x2="12" y2="23"/>
    <line x1="4.22" y1="4.22" x2="5.64" y2="5.64"/>
    <line x1="18.36" y1="18.36" x2="19.78" y2="19.78"/>
    <line x1="1" y1="12" x2="3" y2="12"/>
    <line x1="21" y1="12" x2="23" y2="12"/>
    <line x1="4.22" y1="19.78" x2="5.64" y2="18.36"/>
    <line x1="18.36" y1="5.64" x2="19.78" y2="4.22"/>
  </symbol>

  <symbol id="icon-globe" viewBox="0 0 24 24" fill="none" stroke="currentColor" stroke-width="2" stroke-linecap="round" stroke-linejoin="round">
    <circle cx="12" cy="12" r="10"/>
    <line x1="2" y1="12" x2="22" y2="12"/>
    <path d="M12 2a15.3 15.3 0 0 1 4 10 15.3 15.3 0 0 1-4 10 15.3 15.3 0 0 1-4-10 15.3 15.3 0 0 1 4-10z"/>
  </symbol>

  <symbol id="icon-bell" viewBox="0 0 24 24" fill="none" stroke="currentColor" stroke-width="2" stroke-linecap="round" stroke-linejoin="round">
    <path d="M18 8A6 6 0 0 0 6 8c0 7-3 9-3 9h18s-3-2-3-9"/>
    <path d="M13.73 21a2 2 0 0 1-3.46 0"/>
  </symbol>

  <symbol id="icon-list" viewBox="0 0 24 24" fill="none" stroke="currentColor" stroke-width="2" stroke-linecap="round" stroke-linejoin="round">
    <line x1="4" y1="6" x2="20" y2="6"/>
    <line x1="4" y1="12" x2="20" y2="12"/>
    <line x1="4" y1="18" x2="20" y2="18"/>
  </symbol>

  <symbol id="icon-upload" viewBox="0 0 24 24" fill="none" stroke="currentColor" stroke-width="2" stroke-linecap="round" stroke-linejoin="round">
    <line x1="12" y1="20" x2="12" y2="4"/>
    <polyline points="6 10 12 4 18 10"/>
    <line x1="4" y1="20" x2="20" y2="20"/>
  </symbol>

  <symbol id="icon-database" viewBox="0 0 24 24" fill="none" stroke="currentColor" stroke-width="2" stroke-linecap="round" stroke-linejoin="round">
    <ellipse cx="12" cy="5" rx="9" ry="3"/>
    <path d="M21 12c0 1.66-4 3-9 3s-9-1.34-9-3"/>
    <path d="M3 5v14c0 1.66 4 3 9 3s9-1.34 9-3V5"/>
  </symbol>

  <symbol id="icon-message" viewBox="0 0 24 24" fill="none" stroke="currentColor" stroke-width="2" stroke-linecap="round" stroke-linejoin="round">
    <path d="M21 15a2 2 0 0 1-2 2H7l-4 4V5a2 2 0 0 1 2-2h14a2 2 0 0 1 2 2z"/>
  </symbol>

  <symbol id="icon-help" viewBox="0 0 24 24" fill="none" stroke="currentColor" stroke-width="2" stroke-linecap="round" stroke-linejoin="round">
    <circle cx="12" cy="12" r="10"/>
    <path d="M9.09 9a3 3 0 0 1 5.83 1c0 2-3 3-3 3"/>
    <line x1="12" y1="17" x2="12.01" y2="17"/>
  </symbol>

  <symbol id="icon-file-text" viewBox="0 0 24 24" fill="none" stroke="currentColor" stroke-width="2" stroke-linecap="round" stroke-linejoin="round">
    <path d="M14 2H6a2 2 0 0 0-2 2v16a2 2 0 0 0 2 2h12a2 2 0 0 0 2-2V8z"/>
    <polyline points="14 2 14 8 20 8"/>
    <line x1="16" y1="13" x2="8" y2="13"/>
    <line x1="16" y1="17" x2="8" y2="17"/>
    <polyline points="10 9 9 9 8 9"/>
  </symbol>

  <symbol id="icon-grid" viewBox="0 0 24 24" fill="none" stroke="currentColor" stroke-width="2" stroke-linecap="round" stroke-linejoin="round">
    <rect x="4" y="2" width="16" height="20" rx="2"/>
    <line x1="8" y1="6" x2="16" y2="6"/>
    <line x1="8" y1="10" x2="10" y2="10"/>
    <line x1="14" y1="10" x2="16" y2="10"/>
    <line x1="8" y1="14" x2="10" y2="14"/>
    <line x1="14" y1="14" x2="16" y2="14"/>
    <line x1="8" y1="18" x2="10" y2="18"/>
    <line x1="14" y1="18" x2="16" y2="18"/>
  </symbol>

  <symbol id="icon-image" viewBox="0 0 24 24" fill="none" stroke="currentColor" stroke-width="2" stroke-linecap="round" stroke-linejoin="round">
    <rect x="3" y="3" width="18" height="18" rx="2" ry="2"/>
    <circle cx="8.5" cy="8.5" r="1.5"/>
    <polyline points="21 15 16 10 5 21"/>
  </symbol>

  <symbol id="icon-font" viewBox="0 0 24 24" fill="none" stroke="currentColor" stroke-width="2" stroke-linecap="round" stroke-linejoin="round">
    <polyline points="4 7 4 4 20 4 20 7"/>
    <line x1="9" y1="20" x2="15" y2="20"/>
    <line x1="12" y1="4" x2="12" y2="20"/>
  </symbol>

  <symbol id="icon-circle" viewBox="0 0 24 24" fill="none" stroke="currentColor" stroke-width="2" stroke-linecap="round" stroke-linejoin="round">
    <circle cx="12" cy="12" r="10"/>
  </symbol>

  <symbol id="icon-scale" viewBox="0 0 24 24" fill="none" stroke="currentColor" stroke-width="2" stroke-linecap="round" stroke-linejoin="round">
    <rect x="4" y="4" width="16" height="16" rx="2"/>
    <circle cx="12" cy="12" r="3"/>
  </symbol>

  <!-- Nutrition / nav icons -->

  <symbol id="icon-dumbbell" viewBox="0 0 24 24" fill="currentColor">
    <rect x="1" y="9" width="3" height="6" rx="1"/>
    <rect x="20" y="9" width="3" height="6" rx="1"/>
    <rect x="4" y="10" width="2" height="4"/>
    <rect x="18" y="10" width="2" height="4"/>
    <rect x="6" y="11" width="12" height="2"/>
  </symbol>

  <symbol id="icon-food" viewBox="0 0 24 24" fill="none" stroke="currentColor" stroke-width="2" stroke-linecap="round" stroke-linejoin="round">
    <path d="M12 7c-1.2-1.8-3.2-2.6-5-2 0 2 1 3.6 2.8 4.6"/>
    <path d="M12 8.5c-4 0-6.8 3-6.8 6.8 0 3.7 2.6 6.7 5.6 6.7.9 0 1.6-.4 2.2-.4.6 0 1.3.4 2.2.4 3 0 5.6-3 5.6-6.7 0-3.1-1.9-5-4.4-5.9"/>
  </symbol>

  <!-- ── Brand icons ───────────────────────────────────────────────────── -->

  <symbol id="brand-google" viewBox="0 0 24 24">
    <path d="M23.52 12.27c0-.85-.08-1.67-.22-2.45H12v4.64h5.92c-.26 1.37-1.04 2.53-2.21 3.31v2.77h3.88c2.27-2.09 3.57-5.17 3.57-8.84Z" fill="#4285F4"/>
    <path d="M12 24c3.24 0 5.96-1.07 7.95-2.9l-3.88-3.02c-1.08.72-2.45 1.15-4.07 1.15-3.13 0-5.78-2.11-6.73-4.95H1.26v3.11A12 12 0 0 0 12 24Z" fill="#34A853"/>
    <path d="M5.27 14.28A7.2 7.2 0 0 1 4.89 12c0-.79.14-1.56.38-2.28V6.61H1.26A12 12 0 0 0 0 12c0 1.94.46 3.77 1.26 5.39l4.01-3.11Z" fill="#FBBC05"/>
    <path d="M12 4.77c1.77 0 3.35.61 4.6 1.8l3.44-3.44C17.95 1.19 15.24 0 12 0A12 12 0 0 0 1.26 6.61l4.01 3.11C6.22 6.88 8.87 4.77 12 4.77Z" fill="#EA4335"/>
  </symbol>

  <symbol id="brand-apple" viewBox="0 0 24 24" fill="currentColor">
    <path d="M18.71 19.5c-.83 1.24-1.71 2.45-3.05 2.47-1.34.03-1.77-.79-3.29-.79-1.53 0-2 .77-3.27.82-1.31.05-2.3-1.32-3.14-2.53C4.25 17 2.94 12.45 4.7 9.39c.87-1.52 2.43-2.48 4.12-2.51 1.28-.02 2.5.87 3.29.87.78 0 2.26-1.07 3.8-.91.65.03 2.47.26 3.64 1.98-.09.06-2.17 1.28-2.15 3.81.03 3.02 2.65 4.03 2.68 4.04-.03.07-.42 1.44-1.38 2.83M13 3.5c.73-.83 1.94-1.46 2.94-1.5.13 1.17-.34 2.35-1.04 3.19-.69.85-1.83 1.51-2.95 1.42-.15-1.15.41-2.35 1.05-3.11z"/>
  </symbol>

  <symbol id="brand-github" viewBox="0 0 24 24" fill="currentColor">
    <path d="M12 .5C5.73.5.5 5.73.5 12c0 5.09 3.29 9.39 7.86 10.91.57.1.79-.25.79-.55 0-.27-.01-1.16-.02-2.11-3.2.7-3.88-1.36-3.88-1.36-.52-1.34-1.28-1.69-1.28-1.69-1.05-.72.08-.71.08-.71 1.16.08 1.77 1.19 1.77 1.19 1.03 1.77 2.71 1.26 3.37.96.1-.75.4-1.26.73-1.55-2.55-.29-5.23-1.28-5.23-5.7 0-1.26.45-2.29 1.19-3.09-.12-.29-.52-1.46.11-3.05 0 0 .97-.31 3.18 1.18a11.05 11.05 0 0 1 5.79 0c2.2-1.49 3.17-1.18 3.17-1.18.63 1.59.24 2.76.12 3.05.74.8 1.19 1.83 1.19 3.09 0 4.43-2.69 5.4-5.25 5.69.41.36.78 1.06.78 2.14 0 1.55-.01 2.79-.01 3.17 0 .3.21.66.8.55A10.52 10.52 0 0 0 23.5 12C23.5 5.73 18.27.5 12 .5Z"/>
  </symbol>

  <!-- ── Muscle icons (40 × 40, use CSS custom properties) ─────────────── -->

  <symbol id="muscle-chest" viewBox="0 0 40 40">
    <rect width="40" height="40" rx="10" fill="var(--elevated)"/>
    <path d="M8 14c0 0 4-2 7 0s3 6 5 7c2 1 5-5 7-7s7 0 7 0v8c0 0-5 2-7 1s-5-4-7-4-4 3-7 4-5-1-5-1z" fill="var(--lime)" opacity=".85"/>
  </symbol>

  <symbol id="muscle-back" viewBox="0 0 40 40">
    <rect width="40" height="40" rx="10" fill="var(--elevated)"/>
    <path d="M20 8v24M13 12c0 0-3 4-3 8s3 8 3 8M27 12c0 0 3 4 3 8s-3 8-3 8M16 14h8M16 20h8M16 26h8" stroke="var(--lime)" stroke-width="2" stroke-linecap="round" opacity=".85"/>
  </symbol>

  <symbol id="muscle-shoulders" viewBox="0 0 40 40">
    <rect width="40" height="40" rx="10" fill="var(--elevated)"/>
    <circle cx="12" cy="18" r="5" fill="var(--lime)" opacity=".85"/>
    <circle cx="28" cy="18" r="5" fill="var(--lime)" opacity=".85"/>
    <rect x="12" y="18" width="16" height="4" fill="var(--lime)" opacity=".85"/>
  </symbol>

  <symbol id="muscle-biceps" viewBox="0 0 40 40">
    <rect width="40" height="40" rx="10" fill="var(--elevated)"/>
    <path d="M14 28c0 0-2-6 0-10s4-4 6-4 4 0 6 4 0 10 0 10" stroke="var(--lime)" stroke-width="2.5" stroke-linecap="round" fill="none" opacity=".85"/>
    <path d="M12 22c0 0 3-2 8-2s8 2 8 2" stroke="var(--lime)" stroke-width="2" stroke-linecap="round" opacity=".85"/>
  </symbol>

  <symbol id="muscle-triceps" viewBox="0 0 40 40">
    <rect width="40" height="40" rx="10" fill="var(--elevated)"/>
    <path d="M15 12l-3 16h16l-3-16" stroke="var(--lime)" stroke-width="2.5" stroke-linecap="round" stroke-linejoin="round" fill="none" opacity=".85"/>
    <path d="M15 12h10" stroke="var(--lime)" stroke-width="2.5" stroke-linecap="round" opacity=".85"/>
  </symbol>

  <symbol id="muscle-legs" viewBox="0 0 40 40">
    <rect width="40" height="40" rx="10" fill="var(--elevated)"/>
    <path d="M14 10v12l-2 10M26 10v12l2 10" stroke="var(--lime)" stroke-width="3" stroke-linecap="round" fill="none" opacity=".85"/>
    <path d="M14 10h12" stroke="var(--lime)" stroke-width="3" stroke-linecap="round" opacity=".85"/>
  </symbol>

  <symbol id="muscle-glutes" viewBox="0 0 40 40">
    <rect width="40" height="40" rx="10" fill="var(--elevated)"/>
    <path d="M12 28c0-5 3-10 8-10s8 5 8 10" fill="var(--lime)" opacity=".85"/>
    <path d="M20 18c-5 0-8 5-8 10h16c0-5-3-10-8-10z" fill="var(--lime)" opacity=".7"/>
  </symbol>

  <symbol id="muscle-calves" viewBox="0 0 40 40">
    <rect width="40" height="40" rx="10" fill="var(--elevated)"/>
    <path d="M15 10c0 0-2 8 0 12s5 4 5 4-5 0-4 6" stroke="var(--lime)" stroke-width="2.5" stroke-linecap="round" fill="none" opacity=".85"/>
    <path d="M25 10c0 0 2 8 0 12s-5 4-5 4 5 0 4 6" stroke="var(--lime)" stroke-width="2.5" stroke-linecap="round" fill="none" opacity=".85"/>
  </symbol>

  <symbol id="muscle-core" viewBox="0 0 40 40">
    <rect width="40" height="40" rx="10" fill="var(--elevated)"/>
    <rect x="15" y="10" width="10" height="5" rx="2" fill="var(--lime)" opacity=".85"/>
    <rect x="15" y="17" width="10" height="5" rx="2" fill="var(--lime)" opacity=".85"/>
    <rect x="15" y="24" width="10" height="5" rx="2" fill="var(--lime)" opacity=".85"/>
  </symbol>

  <symbol id="muscle-cardio" viewBox="0 0 40 40">
    <rect width="40" height="40" rx="10" fill="var(--elevated)"/>
    <path d="M8 20h4l3-7 4 14 3-9 2 3 4-1" stroke="var(--lime)" stroke-width="2.2" stroke-linecap="round" stroke-linejoin="round" fill="none" opacity=".85"/>
  </symbol>

  <!-- ── Equipment icons (40 × 40, use CSS custom properties) ─────────── -->

  <symbol id="equip-barbell" viewBox="0 0 40 40">
    <rect width="40" height="40" rx="10" fill="var(--elevated)"/>
    <rect x="4" y="17" width="32" height="6" rx="3" fill="var(--lime)" opacity=".85"/>
    <rect x="4" y="14" width="6" height="12" rx="3" fill="var(--lime)"/>
    <rect x="30" y="14" width="6" height="12" rx="3" fill="var(--lime)"/>
  </symbol>

  <symbol id="equip-dumbbell" viewBox="0 0 40 40">
    <rect width="40" height="40" rx="10" fill="var(--elevated)"/>
    <rect x="10" y="17" width="20" height="6" rx="3" fill="var(--lime)" opacity=".85"/>
    <rect x="6" y="14" width="8" height="12" rx="3" fill="var(--lime)"/>
    <rect x="26" y="14" width="8" height="12" rx="3" fill="var(--lime)"/>
  </symbol>

  <symbol id="equip-cable" viewBox="0 0 40 40">
    <rect width="40" height="40" rx="10" fill="var(--elevated)"/>
    <circle cx="28" cy="12" r="5" stroke="var(--lime)" stroke-width="2.5" fill="none" opacity=".85"/>
    <path d="M24 16l-16 16" stroke="var(--lime)" stroke-width="2.5" stroke-linecap="round" opacity=".85"/>
    <circle cx="8" cy="32" r="3" fill="var(--lime)" opacity=".85"/>
  </symbol>

  <symbol id="equip-machine" viewBox="0 0 40 40">
    <rect width="40" height="40" rx="10" fill="var(--elevated)"/>
    <rect x="8" y="8" width="24" height="24" rx="4" stroke="var(--lime)" stroke-width="2.5" fill="none" opacity=".85"/>
    <rect x="14" y="14" width="12" height="8" rx="2" fill="var(--lime)" opacity=".6"/>
    <rect x="16" y="24" width="8" height="3" rx="1.5" fill="var(--lime)" opacity=".85"/>
  </symbol>

  <symbol id="equip-bodyweight" viewBox="0 0 40 40">
    <rect width="40" height="40" rx="10" fill="var(--elevated)"/>
    <circle cx="20" cy="10" r="4" fill="var(--lime)" opacity=".85"/>
    <path d="M20 14v12" stroke="var(--lime)" stroke-width="2.5" stroke-linecap="round"/>
    <path d="M12 20h16" stroke="var(--lime)" stroke-width="2.5" stroke-linecap="round"/>
    <path d="M14 32l6-6 6 6" stroke="var(--lime)" stroke-width="2.5" stroke-linecap="round" stroke-linejoin="round" fill="none"/>
  </symbol>

  <symbol id="equip-other" viewBox="0 0 40 40">
    <rect width="40" height="40" rx="10" fill="var(--elevated)"/>
    <circle cx="20" cy="20" r="9" stroke="var(--lime)" stroke-width="2.5" fill="none" opacity=".85"/>
    <path d="M20 15v6l4 2" stroke="var(--lime)" stroke-width="2" stroke-linecap="round" stroke-linejoin="round"/>
  </symbol>

</svg>
